<svg xmlns="http://www.w3.org/2000/svg" width="100" height="100" viewBox="0, 0, 100, 100"><path fill="none" d="M0 0h100v100H0z"/><path d="M50 12.5c20.71 0 37.5 16.79 37.5 37.5S70.71 87.5 50 87.5 12.5 70.71 12.5 50 29.29 12.5 50 12.5zm15.545 17.827H34.447a4.122 4.122 0 0 0-4.122 4.123v31.1a4.123 4.123 0 0 0 4.122 4.125h31.098a4.127 4.127 0 0 0 4.125-4.125v-31.1a4.126 4.126 0 0 0-4.125-4.123zM38.055 46.89c-.23.937-.354 1.912-.354 2.917 0 6.776 5.498 12.276 12.28 12.276 6.782 0 12.277-5.5 12.277-12.276 0-1.005-.123-1.98-.347-2.916h3.264v16.814c0 .986-.695 1.388-1.758 1.388H36.504c-1.06 0-1.76-.405-1.76-1.388V46.89h3.31zm11.962-4.662a7.712 7.712 0 1 1 0 15.425 7.712 7.712 0 0 1 0-15.425zm13.782-7.51c.78 0 1.417.63 1.415 1.416v4.916c0 .78-.635 1.41-1.416 1.41h-4.92a1.41 1.41 0 0 1-1.412-1.41v-4.916a1.41 1.41 0 0 1 1.412-1.415h4.92z" fill="#125688"/></svg>